<?xml version="1.0" encoding="UTF-8"?>
<svg xmlns="http://www.w3.org/2000/svg" xmlns:xlink="http://www.w3.org/1999/xlink" width="658.56pt" height="230.41pt" viewBox="0 0 658.56 230.41" version="1.1">
<defs>
<clipPath id="clip1">
  <path d="M 1 81 L 122 81 L 122 230.410156 L 1 230.410156 Z M 1 81 "/>
</clipPath>
<clipPath id="clip2">
  <path d="M 564 31 L 658.558594 31 L 658.558594 146 L 564 146 Z M 564 31 "/>
</clipPath>
</defs>
<g id="surface1">
<g clip-path="url(#clip1)" clip-rule="nonzero">
<path style=" stroke:none;fill-rule:evenodd;fill:rgb(100%,100%,100%);fill-opacity:1;" d="M 37.648438 155.289063 C 46.703125 139.566406 57.214844 125.011719 71.742188 113.792969 C 75.203125 111.101563 79.082031 109.117188 83.539063 109.015625 C 89.691406 108.878906 92.558594 112.539063 93.90625 118.050781 C 92.238281 121.132813 91.148438 124.164063 89.226563 126.550781 C 76.953125 141.792969 61.558594 152.976563 43.722656 160.882813 C 41.550781 161.84375 38.980469 163.089844 37.046875 161.582031 C 34.675781 159.71875 36.535156 157.234375 37.648438 155.289063 Z M 40.722656 171.066406 C 67.984375 163.730469 91.726563 150.605469 110.234375 128.882813 C 116.777344 121.210938 121.375 112.691406 121.402344 102.261719 C 121.429688 90.09375 111.734375 80.558594 99.625 81.136719 C 85.5625 81.796875 72.585938 85.808594 61.804688 95.148438 C 30.582031 122.234375 10.59375 156.078125 3.011719 187.210938 C -2.832031 222.105469 10.546875 234.824219 36.054688 229.085938 C 56.96875 224.386719 73.042969 212.21875 86.167969 195.777344 C 88.136719 193.324219 92.347656 190.382813 88.269531 186.875 C 85.003906 184.066406 82.589844 187.90625 80.285156 189.679688 C 70.613281 197.117188 61.019531 204.597656 48.453125 206.570313 C 35.945313 208.527344 27.792969 204.359375 26.125 195.085938 C 24.101563 183.773438 30.015625 173.945313 40.722656 171.066406 "/>
</g>
<path style=" stroke:none;fill-rule:evenodd;fill:rgb(100%,100%,100%);fill-opacity:1;" d="M 391.828125 63.855469 C 388.671875 60.75 385.011719 63.121094 382.03125 64.625 C 373.019531 69.160156 366.867188 76.738281 361.402344 85.011719 C 348.722656 104.234375 336.007813 123.4375 323.046875 142.464844 C 319.917969 147.070313 316.671875 152.015625 310.707031 153.9375 C 309.28125 150.886719 311.007813 148.847656 311.847656 146.816406 C 320.117188 126.898438 330.433594 107.820313 336.890625 87.152344 C 339.046875 80.238281 341.011719 72.578125 332.207031 69.03125 C 325.726563 66.414063 314.472656 75.332031 314.136719 83.25 C 313.671875 94.191406 309.304688 103.625 304.878906 113.246094 C 295.945313 132.691406 285.214844 151.382813 280.082031 172.386719 C 278.992188 176.8125 277.335938 182.042969 282.175781 185.394531 C 287.1875 188.875 292.03125 186.179688 296.457031 183.589844 C 305.382813 178.34375 312.476563 171.078125 318.839844 162.957031 C 326.96875 152.59375 335.375 142.441406 343.652344 132.199219 C 345.054688 145.421875 339.101563 155.917969 337.015625 167.425781 C 336.15625 172.214844 331.613281 177.5 337.160156 181.210938 C 341.839844 184.335938 346.917969 180.578125 351.378906 178.285156 C 355.90625 175.96875 357.859375 171.960938 358.585938 166.890625 C 359.589844 159.917969 360.992188 152.976563 362.78125 146.167969 C 369.519531 120.628906 382.601563 97.496094 391.089844 72.617188 C 392.058594 69.765625 394.644531 66.628906 391.828125 63.855469 "/>
<path style=" stroke:none;fill-rule:evenodd;fill:rgb(100%,100%,100%);fill-opacity:1;" d="M 571.929688 57.726563 C 574.410156 51.324219 577.367188 43.410156 569.777344 38.453125 C 562.636719 33.785156 556.285156 38.453125 550.621094 42.945313 C 537.484375 53.34375 529.070313 67.796875 518.503906 80.421875 C 515.578125 83.925781 513.75 88.910156 507.074219 90.996094 C 511.746094 78.058594 515.925781 66.707031 519.925781 55.285156 C 521.25 51.496094 522.589844 46.363281 516.449219 46.566406 C 508.914063 46.816406 500.355469 46.988281 497.089844 56.320313 C 485.8125 88.707031 472.171875 120.238281 462.160156 153.109375 C 459.53125 161.757813 464.128906 162.074219 469.855469 160.222656 C 479.324219 157.160156 486.554688 151.078125 488.980469 141.042969 C 496.542969 109.648438 521.660156 91.355469 542.210938 69.273438 C 543.230469 74.4375 542.296875 78.714844 540.347656 83.222656 C 532.320313 101.835938 524.734375 120.632813 517.410156 139.539063 C 514.753906 146.394531 516.554688 152.691406 524.8125 153.519531 C 532.308594 154.273438 542.234375 153.355469 541.5 143.527344 C 540.484375 129.929688 546.511719 119.265625 551.207031 107.804688 C 558.058594 91.085938 565.410156 74.566406 571.929688 57.726563 "/>
<path style=" stroke:none;fill-rule:evenodd;fill:rgb(100%,100%,100%);fill-opacity:1;" d="M 209.28125 109.152344 C 211.070313 103.640625 212.070313 97.609375 207.472656 93.820313 C 202.019531 89.332031 196.214844 93.210938 191.40625 96.542969 C 183.976563 101.6875 177.722656 108.074219 171.960938 115.171875 C 162.945313 126.292969 155.394531 138.761719 141.273438 150.324219 C 146.078125 137.75 149.890625 128.46875 153.152344 119.003906 C 154.886719 113.980469 160.390625 106.367188 153.574219 104.003906 C 146.910156 101.6875 138.0625 104.429688 132.972656 111.753906 C 132.34375 112.65625 132.460938 114.039063 132.046875 115.128906 C 129.289063 122.417969 126.5 129.683594 123.683594 136.953125 C 114.675781 160.207031 105.609375 183.4375 96.683594 206.707031 C 95.316406 210.257813 93.15625 214.402344 97.046875 217.5 C 100.308594 220.09375 103.792969 217.65625 106.984375 216.289063 C 115.886719 212.460938 121.472656 205.6875 123.957031 196.398438 C 132.34375 164.953125 158.472656 147.035156 179.058594 121.789063 C 181.171875 130.832031 177.773438 135.488281 175.582031 140.386719 C 167.4375 158.554688 158.546875 176.40625 152.195313 195.339844 C 150.671875 199.867188 149.972656 204.78125 154.507813 208.300781 C 158.785156 211.613281 163.542969 210.300781 168.03125 208.800781 C 172.703125 207.25 177.578125 204.398438 176.632813 199.007813 C 174.421875 186.257813 180.898438 176.183594 185.558594 165.566406 C 193.777344 146.890625 202.96875 128.636719 209.28125 109.152344 "/>
<path style=" stroke:none;fill-rule:evenodd;fill:rgb(100%,100%,100%);fill-opacity:1;" d="M 438.304688 77.398438 C 442.386719 74.136719 447.015625 71.214844 451.855469 76.277344 C 455.960938 80.566406 454.429688 85.085938 451.429688 89.121094 C 441.226563 102.808594 427.316406 110.578125 410.558594 113.914063 C 416.949219 99.121094 426.179688 87.078125 438.304688 77.398438 Z M 415.015625 122.757813 C 437.242188 117.609375 457.824219 109.289063 472.714844 90.910156 C 479.429688 82.640625 481.175781 73.226563 476.613281 63.367188 C 471.941406 53.28125 462.328125 53.4375 453.296875 53.582031 C 449.140625 53.664063 444.859375 55.105469 440.898438 56.613281 C 406.707031 69.617188 381.394531 114.339844 378.90625 142.4375 C 377.605469 157.113281 383.765625 166.835938 394.382813 169.460938 C 412.410156 173.945313 445.101563 155.582031 452.695313 134.933594 C 441.148438 141.585938 432.316406 149.375 420.839844 150.976563 C 412.996094 152.082031 404.464844 152.1875 402.148438 141.765625 C 399.792969 131.214844 404.1875 125.277344 415.015625 122.757813 "/>
<path style=" stroke:none;fill-rule:evenodd;fill:rgb(100%,100%,100%);fill-opacity:1;" d="M 292.597656 96.296875 C 291.539063 87.25 282.894531 80.308594 273.214844 81.207031 C 258.957031 82.535156 246.121094 87.773438 234.386719 96.210938 C 216 109.410156 212.171875 131.730469 233.035156 146.804688 C 248.511719 157.980469 246.085938 173.046875 228.816406 181.523438 C 223.910156 183.929688 218.339844 186.203125 213.304688 182.136719 C 208.640625 178.363281 210.769531 173.703125 212.929688 169.332031 C 214.621094 165.894531 213.28125 163.058594 210.464844 161.160156 C 207.503906 159.15625 205.253906 161.664063 203.421875 163.4375 C 199.0625 167.648438 196.519531 172.84375 196.398438 178.511719 C 195.0625 190.78125 201.527344 198.820313 213.351563 199.722656 C 221.292969 200.324219 229.019531 198.78125 236.453125 195.996094 C 273.765625 182.046875 279.757813 154.140625 251.425781 126.46875 C 250.863281 125.925781 250.363281 125.320313 249.808594 124.757813 C 239.828125 114.5 243.503906 99.839844 257.230469 95.203125 C 266.734375 91.980469 270.875 94.949219 270.335938 105.21875 C 269.921875 113.078125 273.394531 114.804688 280.390625 113.320313 C 289.839844 111.328125 293.652344 105.40625 292.597656 96.296875 "/>
<path style=" stroke:none;fill-rule:evenodd;fill:rgb(100%,100%,100%);fill-opacity:1;" d="M 542.367188 33.410156 C 548.40625 34.867188 554.835938 34.058594 560.871094 31.828125 C 573.421875 27.191406 579.183594 17.617188 576.546875 4.105469 C 570.800781 10.394531 563.257813 10.894531 556.0625 11.925781 C 547.226563 13.164063 538.144531 12.867188 529.394531 14.488281 C 516.144531 16.933594 508.109375 27.007813 507.289063 42.503906 C 517.609375 30.695313 529.441406 30.304688 542.367188 33.410156 "/>
<g clip-path="url(#clip2)" clip-rule="nonzero">
<path style=" stroke:none;fill-rule:evenodd;fill:rgb(100%,100%,100%);fill-opacity:1;" d="M 649.011719 44.757813 C 647.8125 44.253906 640.859375 42.675781 634.972656 44.863281 C 627.777344 47.527344 621.5625 54.207031 621.835938 55.234375 C 623.03125 59.816406 627.09375 56.460938 629.800781 55.757813 C 639.222656 53.316406 643.242188 58.269531 641.21875 66.324219 C 635.871094 87.597656 623.167969 104.300781 605.660156 117.269531 C 602.125 119.886719 597.5 120.832031 593.496094 117.890625 C 588.71875 114.375 588.921875 109.15625 589.796875 103.941406 C 592.261719 89.238281 598.09375 76.25 606.675781 64.703125 C 607.226563 63.964844 611.679688 57.0625 617.410156 52.570313 C 624.546875 46.96875 633.1875 43.628906 633.1875 43.628906 C 633.1875 43.628906 636.757813 41.933594 640.539063 40.757813 C 644.453125 39.535156 648.613281 38.835938 650.300781 38.472656 C 652.492188 38.007813 655.726563 38.492188 655.816406 35.375 C 655.902344 31.789063 652.140625 31.058594 649.835938 31.148438 C 643.609375 31.378906 637.214844 31.71875 631.261719 33.371094 C 592.25 44.207031 574.246094 73.480469 565.421875 110.160156 C 562.738281 121.304688 564.164063 132.558594 573.914063 140.128906 C 583.605469 147.644531 594.679688 146.078125 605.351563 141.761719 C 609.332031 140.148438 613.308594 138.164063 616.726563 135.59375 C 639.515625 118.492188 652.5625 95.136719 657.746094 67.59375 C 660.074219 55.21875 657.503906 48.335938 649.011719 44.757813 "/>
</g>
<path style=" stroke:none;fill-rule:evenodd;fill:rgb(16.499329%,21.998596%,56.498718%);fill-opacity:1;" d="M 35.992188 151.195313 C 45.054688 135.480469 55.5625 120.917969 70.085938 109.691406 C 73.554688 107.011719 77.433594 105.023438 81.894531 104.921875 C 88.042969 104.773438 90.898438 108.449219 92.246094 113.9375 C 90.585938 117.035156 89.492188 120.066406 87.578125 122.449219 C 75.308594 137.699219 59.910156 148.882813 42.0625 156.789063 C 39.898438 157.738281 37.332031 158.992188 35.402344 157.496094 C 33.019531 155.621094 34.882813 153.132813 35.992188 151.195313 Z M 39.070313 166.976563 C 66.324219 159.628906 90.066406 146.511719 108.589844 124.78125 C 115.121094 117.109375 119.71875 108.585938 119.75 98.167969 C 119.777344 86.003906 110.078125 76.460938 97.976563 77.042969 C 83.914063 77.691406 70.941406 81.707031 60.15625 91.050781 C 28.925781 118.132813 8.941406 151.980469 1.359375 183.121094 C -4.484375 218.003906 8.890625 230.726563 34.402344 224.984375 C 55.320313 220.285156 71.390625 208.121094 84.515625 191.683594 C 86.492188 189.210938 90.695313 186.289063 86.609375 182.773438 C 83.351563 179.960938 80.9375 183.816406 78.632813 185.589844 C 68.964844 193.019531 59.367188 200.503906 46.804688 202.46875 C 34.292969 204.429688 26.148438 200.257813 24.472656 190.988281 C 22.445313 179.660156 28.363281 169.851563 39.070313 166.976563 "/>
<path style=" stroke:none;fill-rule:evenodd;fill:rgb(16.499329%,21.998596%,56.498718%);fill-opacity:1;" d="M 390.175781 59.753906 C 387.019531 56.65625 383.355469 59.027344 380.382813 60.519531 C 371.371094 65.066406 365.214844 72.636719 359.75 80.914063 C 347.066406 100.140625 334.355469 119.339844 321.394531 138.375 C 318.265625 142.976563 315.007813 147.921875 309.050781 149.839844 C 307.636719 146.796875 309.355469 144.753906 310.195313 142.714844 C 318.472656 122.800781 328.78125 103.730469 335.238281 83.050781 C 337.402344 76.144531 339.363281 68.484375 330.558594 64.929688 C 324.078125 62.3125 312.816406 71.230469 312.480469 79.15625 C 312.015625 90.097656 307.640625 99.527344 303.226563 109.152344 C 294.300781 128.582031 283.570313 147.289063 278.429688 168.28125 C 277.351563 172.707031 275.675781 177.9375 280.523438 181.300781 C 285.523438 184.785156 290.386719 182.089844 294.804688 179.492188 C 303.730469 174.25 310.820313 166.980469 317.191406 158.855469 C 325.316406 148.492188 333.71875 138.351563 342 128.109375 C 343.402344 141.324219 337.449219 151.824219 335.375 163.328125 C 334.503906 168.113281 329.960938 173.402344 335.503906 177.109375 C 340.1875 180.230469 345.261719 176.480469 349.71875 174.183594 C 354.253906 171.867188 356.199219 167.863281 356.929688 162.789063 C 357.9375 155.824219 359.351563 148.875 361.136719 142.0625 C 367.863281 116.519531 380.945313 93.398438 389.4375 68.515625 C 390.410156 65.667969 392.992188 62.527344 390.175781 59.753906 "/>
<path style=" stroke:none;fill-rule:evenodd;fill:rgb(16.499329%,21.998596%,56.498718%);fill-opacity:1;" d="M 570.277344 53.625 C 572.761719 47.226563 575.714844 39.320313 568.132813 34.359375 C 560.984375 29.683594 554.636719 34.355469 548.96875 38.847656 C 535.832031 49.246094 527.421875 63.699219 516.863281 76.3125 C 513.921875 79.828125 512.101563 84.8125 505.425781 86.898438 C 510.09375 73.957031 514.277344 62.601563 518.277344 51.1875 C 519.605469 47.398438 520.9375 42.269531 514.796875 42.472656 C 507.265625 42.722656 498.699219 42.890625 495.449219 52.226563 C 484.160156 84.613281 470.511719 116.140625 460.507813 149 C 457.875 157.652344 462.476563 157.972656 468.203125 156.121094 C 477.671875 153.066406 484.90625 146.976563 487.320313 136.941406 C 494.882813 105.550781 520.007813 87.261719 540.5625 65.167969 C 541.574219 70.339844 540.652344 74.601563 538.695313 79.128906 C 530.667969 97.734375 523.082031 116.53125 515.757813 135.4375 C 513.097656 142.285156 514.902344 148.597656 523.160156 149.425781 C 530.664063 150.171875 540.574219 149.257813 539.851563 139.4375 C 538.839844 125.832031 544.863281 115.171875 549.558594 103.703125 C 556.402344 86.980469 563.75 70.46875 570.277344 53.625 "/>
<path style=" stroke:none;fill-rule:evenodd;fill:rgb(16.499329%,21.998596%,56.498718%);fill-opacity:1;" d="M 207.632813 105.058594 C 209.421875 99.539063 210.425781 93.515625 205.816406 89.722656 C 200.367188 85.230469 194.558594 89.113281 189.753906 92.445313 C 182.320313 97.597656 176.070313 103.976563 170.308594 111.078125 C 161.292969 122.199219 153.75 134.65625 139.617188 146.214844 C 144.425781 133.65625 148.238281 124.367188 151.503906 114.898438 C 153.230469 109.878906 158.738281 102.261719 151.929688 99.902344 C 145.261719 97.589844 136.402344 100.324219 131.324219 107.648438 C 130.699219 108.546875 130.816406 109.933594 130.394531 111.035156 C 127.625 118.316406 124.847656 125.589844 122.03125 132.863281 C 113.023438 156.101563 103.964844 179.328125 95.03125 202.597656 C 93.671875 206.152344 91.507813 210.304688 95.394531 213.402344 C 98.660156 215.996094 102.144531 213.554688 105.332031 212.195313 C 114.234375 208.355469 119.828125 201.578125 122.304688 192.300781 C 130.695313 160.859375 156.820313 142.9375 177.40625 117.6875 C 179.519531 126.742188 176.128906 131.390625 173.9375 136.28125 C 165.78125 154.460938 156.894531 172.316406 150.539063 191.242188 C 149.023438 195.769531 148.328125 200.679688 152.863281 204.203125 C 157.136719 207.519531 161.898438 206.195313 166.378906 204.714844 C 171.046875 203.15625 175.917969 200.304688 174.984375 194.914063 C 172.769531 182.160156 179.25 172.078125 183.914063 161.464844 C 192.121094 142.792969 201.3125 124.539063 207.632813 105.058594 "/>
<path style=" stroke:none;fill-rule:evenodd;fill:rgb(16.499329%,21.998596%,56.498718%);fill-opacity:1;" d="M 436.652344 73.300781 C 440.738281 70.039063 445.359375 67.125 450.207031 72.175781 C 454.308594 76.464844 452.789063 80.988281 449.78125 85.023438 C 439.574219 98.710938 425.667969 106.476563 408.90625 109.820313 C 415.296875 95.015625 424.527344 82.976563 436.652344 73.300781 Z M 413.359375 118.664063 C 435.582031 113.507813 456.164063 105.195313 471.0625 86.808594 C 477.785156 78.535156 479.53125 69.121094 474.972656 59.277344 C 470.289063 49.183594 460.679688 49.328125 451.644531 49.5 C 447.488281 49.566406 443.203125 51.003906 439.246094 52.519531 C 405.058594 65.527344 379.75 110.238281 377.257813 138.332031 C 375.953125 153.011719 382.117188 162.726563 392.726563 165.367188 C 410.757813 169.84375 443.457031 151.488281 451.039063 130.832031 C 439.496094 137.488281 430.65625 145.277344 419.1875 146.890625 C 411.335938 147.988281 402.820313 148.097656 400.492188 137.664063 C 398.140625 127.109375 402.535156 121.179688 413.359375 118.664063 "/>
<path style=" stroke:none;fill-rule:evenodd;fill:rgb(16.499329%,21.998596%,56.498718%);fill-opacity:1;" d="M 290.941406 92.199219 C 289.902344 83.15625 281.242188 76.214844 271.5625 77.105469 C 257.300781 78.441406 244.476563 83.675781 232.730469 92.109375 C 214.347656 105.308594 210.507813 127.636719 231.382813 142.699219 C 246.867188 153.882813 244.4375 168.949219 227.160156 177.417969 C 222.253906 179.828125 216.683594 182.097656 211.652344 178.046875 C 206.992188 174.269531 209.125 169.601563 211.273438 165.222656 C 212.960938 161.804688 211.640625 158.964844 208.8125 157.0625 C 205.851563 155.0625 203.601563 157.570313 201.761719 159.339844 C 197.410156 163.554688 194.867188 168.746094 194.742188 174.40625 C 193.414063 186.691406 199.882813 194.722656 211.699219 195.613281 C 219.636719 196.222656 227.359375 194.683594 234.800781 191.898438 C 272.105469 177.953125 278.105469 150.035156 249.78125 122.371094 C 249.210938 121.824219 248.707031 121.226563 248.160156 120.660156 C 238.167969 110.40625 241.847656 95.742188 255.582031 91.105469 C 265.085938 87.882813 269.222656 90.847656 268.683594 101.113281 C 268.269531 108.992188 271.734375 110.703125 278.742188 109.230469 C 288.195313 107.226563 292 101.304688 290.941406 92.199219 "/>
<path style=" stroke:none;fill-rule:evenodd;fill:rgb(16.499329%,21.998596%,56.498718%);fill-opacity:1;" d="M 540.710938 29.320313 C 546.753906 30.773438 553.179688 29.960938 559.21875 27.734375 C 571.773438 23.09375 577.539063 13.519531 574.894531 0.00390625 C 569.15625 6.296875 561.605469 6.800781 554.410156 7.816406 C 545.570313 9.070313 536.492188 8.777344 527.742188 10.394531 C 514.5 12.835938 506.460938 22.90625 505.632813 38.410156 C 515.960938 26.597656 527.789063 26.203125 540.710938 29.320313 "/>
<path style=" stroke:none;fill-rule:evenodd;fill:rgb(16.499329%,21.998596%,56.498718%);fill-opacity:1;" d="M 647.359375 40.648438 C 646.164063 40.160156 639.207031 38.570313 633.324219 40.757813 C 626.125 43.4375 619.90625 50.113281 620.179688 51.144531 C 621.378906 55.722656 625.441406 52.363281 628.144531 51.660156 C 637.582031 49.21875 641.597656 54.175781 639.566406 62.226563 C 634.214844 83.496094 621.515625 100.203125 604.007813 113.175781 C 600.472656 115.785156 595.839844 116.742188 591.847656 113.796875 C 587.066406 110.277344 587.273438 105.0625 588.148438 99.839844 C 590.609375 85.136719 596.441406 72.148438 605.03125 60.609375 C 605.574219 59.867188 610.03125 52.96875 615.753906 48.464844 C 622.886719 42.863281 631.535156 39.535156 631.535156 39.535156 C 631.535156 39.535156 635.101563 37.839844 638.882813 36.660156 C 642.792969 35.4375 646.972656 34.730469 648.65625 34.375 C 650.84375 33.914063 654.082031 34.386719 654.160156 31.277344 C 654.246094 27.695313 650.484375 26.96875 648.183594 27.046875 C 641.960938 27.269531 635.5625 27.621094 629.605469 29.269531 C 590.605469 40.109375 572.59375 69.382813 563.769531 106.070313 C 561.09375 117.207031 562.511719 128.457031 572.265625 136.035156 C 581.953125 143.554688 593.027344 141.980469 603.691406 137.664063 C 607.683594 136.050781 611.65625 134.066406 615.070313 131.507813 C 637.871094 114.394531 650.910156 91.023438 656.09375 63.492188 C 658.425781 51.121094 655.859375 44.234375 647.359375 40.648438 "/>
</g>
</svg>
